<svg aria-hidden="true" style="position: absolute; width: 0; height: 0; overflow: hidden;" version="1.1"
    xmlns="http://www.w3.org/2000/svg" xmlns:xlink="http://www.w3.org/1999/xlink">
    <defs>
        <symbol id="twitter" viewBox="0 0 36 32">
            <path
                d="M35.556 4.976c-1.322 0.58-2.731 0.964-4.2 1.151 1.511-0.902 2.665-2.32 3.207-4.029-1.409 0.84-2.964 1.433-4.622 1.764-1.338-1.424-3.244-2.307-5.324-2.307-4.035 0-7.284 3.276-7.284 7.291 0 0.578 0.049 1.133 0.169 1.662-6.060-0.296-11.422-3.2-15.024-7.624-0.629 1.091-0.998 2.34-0.998 3.684 0 2.524 1.3 4.762 3.238 6.058-1.171-0.022-2.32-0.362-3.293-0.898 0 0.022 0 0.051 0 0.080 0 3.542 2.527 6.484 5.84 7.162-0.593 0.162-1.24 0.24-1.911 0.24-0.467 0-0.938-0.026-1.38-0.124 0.944 2.887 3.624 5.009 6.811 5.078-2.48 1.94-5.629 3.109-9.038 3.109-0.598 0-1.171-0.026-1.744-0.1 3.229 2.082 7.056 3.271 11.182 3.271 13.413 0 20.747-11.111 20.747-20.742 0-0.322-0.011-0.633-0.027-0.942 1.447-1.027 2.662-2.309 3.653-3.784z">
            </path>
        </symbol>
        <symbol id="footer__burger" viewBox="0 0 32 32">
            <path fill="#dd2242" style="fill: var(--color1, #dd2242)"
                d="M29.419 14.194c0 7.411-6.008 13.419-13.419 13.419s-13.419-6.008-13.419-13.419c0-7.411 6.008-13.419 13.419-13.419s13.419 6.008 13.419 13.419z">
            </path>
            <path fill="#fff" style="fill: var(--color2, #fff)"
                d="M20.721 15.646c0.266 0.266 0.266 0.697 0 0.963s-0.697 0.266-0.963 0l-3.722-3.722-3.777 3.777c-0.266 0.266-0.697 0.266-0.963 0s-0.266-0.697 0-0.963l4.092-4.092c0.135-0.136 0.314-0.202 0.491-0.199 0.248-0.106 0.547-0.058 0.75 0.144l4.092 4.092z">
            </path>
        </symbol>
        <symbol id="arrow__left" viewBox="0 0 20 32">
            <path
                d="M8.098 16.186l9.999 9.999c1.302 1.302 1.302 3.412 0 4.714s-3.412 1.302-4.714 0l-12.406-12.406c-1.302-1.302-1.302-3.412 0-4.714 0.167-0.167 0.347-0.313 0.538-0.437l12.365-12.365c1.302-1.302 3.412-1.302 4.714 0s1.302 3.412 0 4.714l-10.496 10.495z">
            </path>
        </symbol>
        <symbol id="arrow__right" viewBox="0 0 20 32">
            <path
                d="M11.472 16.186l-9.999 9.999c-1.302 1.302-1.302 3.412 0 4.714s3.412 1.302 4.714 0l12.406-12.406c1.302-1.302 1.302-3.412 0-4.714-0.167-0.167-0.347-0.313-0.538-0.437l-12.365-12.365c-1.302-1.302-3.412-1.302-4.714 0s-1.302 3.412 0 4.714l10.495 10.495z">
            </path>
        </symbol>
        <symbol id="facebook" viewBox="0 0 32 32">
            <path
                d="M17.943 25.333v-9h2.915l0.476-4h-3.391v-1.948c0-1.030 0.028-2.052 1.563-2.052h1.555v-2.86c0-0.043-1.336-0.14-2.687-0.14-2.822 0-4.589 1.657-4.589 4.7v2.3h-3.118v4h3.118v9h4.158z">
            </path>
        </symbol>
        <symbol id="footer__logo" viewBox="0 0 84 32">
            <path fill="#fff" style="fill: var(--color2, #fff)"
                d="M18.545 7.728v-3.863c0-0.427-0.346-0.773-0.773-0.773h-0.773v-2.318c0-0.427-0.346-0.773-0.773-0.773-1.094 0-2.769-0.084-4.736 1.094-1.223-0.364-2.087-0.322-2.991-0.322-0.427 0-0.773 0.346-0.773 0.773v1.545h-0.773c-0.427 0-0.773 0.346-0.773 0.773v3.863c0 3.147 2.364 5.752 5.409 6.133v10.093c0 0.427 0.346 0.773 0.773 0.773s0.773-0.346 0.773-0.773v-2.704h1.159c2.343 0 4.25-1.906 4.25-4.25v-1.159c0-0.427-0.346-0.773-0.773-0.773h-1.932c-1.026 0-1.969 0.366-2.704 0.974v-2.182c3.041-0.377 5.409-2.969 5.409-6.133zM17 7.728c0 1.375-0.608 2.617-1.569 3.469 0.015-0.124 0.024-0.25 0.024-0.378 0-1.957-0.732-3.746-1.935-5.108 1.020-0.696 2.23-1.073 3.48-1.073v3.091zM15.454 1.547v1.701c-0.143 0.029-0.285 0.062-0.425 0.099-0.501-0.561-1.073-1.039-1.697-1.425 0.675-0.247 1.391-0.375 2.122-0.375zM9.273 2.319c1.535 0 3.026 0.561 4.185 1.632-0.383 0.197-0.75 0.428-1.097 0.689-0.898-0.675-1.948-1.16-3.088-1.392v-0.928zM7.728 7.728v-3.091c3.408 0 6.181 2.773 6.181 6.181 0 0.863-0.713 1.567-1.586 1.545-2.715-0.067-4.596-2.224-4.596-4.635zM15.841 16.614h1.159v0.386c0 1.491-1.213 2.704-2.704 2.704h-1.159v-0.386c0-1.491 1.213-2.704 2.704-2.704z">
            </path>
            <path fill="#dd2242" style="fill: var(--color1, #dd2242)"
                d="M28.049 10.076h-3.131v1.968h3.698v1.532h-5.69v-8.259h5.701v1.537h-3.71v1.741h3.131v1.481zM32.661 8.062l1.35-2.745h2.275l-2.309 4.096 2.371 4.164h-2.297l-1.39-2.797-1.39 2.797h-2.292l2.365-4.164-2.303-4.096h2.269l1.35 2.745zM39.144 10.774v2.802h-1.991v-8.259h3.296c0.632 0 1.189 0.117 1.673 0.352 0.488 0.231 0.864 0.562 1.129 0.993 0.269 0.427 0.403 0.913 0.403 1.458 0 0.805-0.289 1.45-0.868 1.934-0.575 0.48-1.365 0.72-2.371 0.72h-1.271zM39.144 9.236h1.305c0.386 0 0.679-0.096 0.879-0.289 0.204-0.193 0.306-0.465 0.306-0.817 0-0.386-0.104-0.694-0.312-0.925s-0.492-0.348-0.851-0.352h-1.327v2.382zM46.864 12.044h3.466v1.532h-5.457v-8.259h1.991v6.728zM57.953 9.616c0 0.806-0.149 1.518-0.448 2.139s-0.724 1.099-1.277 1.435c-0.548 0.333-1.174 0.499-1.877 0.499s-1.328-0.161-1.872-0.482c-0.544-0.325-0.97-0.788-1.276-1.39-0.303-0.601-0.462-1.291-0.477-2.070v-0.465c0-0.809 0.147-1.522 0.442-2.139 0.299-0.62 0.724-1.099 1.277-1.435 0.556-0.337 1.187-0.505 1.894-0.505 0.7 0 1.324 0.166 1.872 0.499s0.974 0.807 1.277 1.424c0.306 0.613 0.461 1.316 0.465 2.11v0.38zM55.928 9.27c0-0.821-0.138-1.443-0.414-1.866-0.272-0.427-0.664-0.641-1.174-0.641-0.998 0-1.526 0.749-1.583 2.246l-0.006 0.607c0 0.809 0.134 1.431 0.403 1.866s0.668 0.652 1.197 0.652c0.503 0 0.891-0.214 1.163-0.641s0.41-1.042 0.414-1.844v-0.38zM62.202 10.66h-1.078v2.916h-1.991v-8.259h3.25c0.979 0 1.745 0.217 2.297 0.652s0.828 1.049 0.828 1.844c0 0.575-0.117 1.051-0.352 1.429-0.231 0.378-0.594 0.684-1.089 0.919l1.725 3.33v0.085h-2.133l-1.458-2.916zM61.124 9.123h1.26c0.378 0 0.662-0.098 0.851-0.295 0.193-0.2 0.289-0.478 0.289-0.834s-0.096-0.633-0.289-0.834c-0.193-0.204-0.477-0.306-0.851-0.306h-1.26v2.269zM71.986 10.076h-3.131v1.968h3.698v1.532h-5.689v-8.259h5.701v1.537h-3.71v1.741h3.131v1.481z">
            </path>
            <path fill="#fff" style="fill: var(--color2, #fff)"
                d="M25.049 24.242h-1.985v-8.259h1.985v8.259zM33.483 24.242h-1.98l-2.927-5.139v5.139h-1.991v-8.259h1.991l2.921 5.139v-5.139h1.985v8.259zM34.895 24.242v-8.259h2.66c0.73 0 1.386 0.166 1.968 0.499 0.582 0.329 1.036 0.796 1.361 1.401 0.329 0.601 0.495 1.276 0.499 2.025v0.38c0 0.756-0.161 1.435-0.482 2.036-0.318 0.597-0.768 1.066-1.35 1.407-0.579 0.337-1.225 0.507-1.94 0.511h-2.717zM36.886 17.521v5.19h0.692c0.571 0 1.010-0.202 1.316-0.607 0.306-0.408 0.459-1.013 0.459-1.815v-0.357c0-0.798-0.153-1.399-0.459-1.804s-0.753-0.607-1.339-0.607h-0.669zM49.553 20.283c0 0.806-0.15 1.518-0.449 2.139s-0.724 1.099-1.276 1.435c-0.548 0.333-1.174 0.499-1.878 0.499s-1.327-0.161-1.872-0.482c-0.545-0.325-0.97-0.788-1.276-1.39-0.303-0.601-0.461-1.291-0.477-2.070v-0.465c0-0.809 0.148-1.522 0.442-2.139 0.299-0.62 0.724-1.099 1.276-1.435 0.556-0.337 1.187-0.505 1.895-0.505 0.7 0 1.324 0.166 1.872 0.499s0.974 0.807 1.276 1.424c0.306 0.613 0.462 1.316 0.465 2.11v0.38zM47.528 19.937c0-0.821-0.138-1.443-0.414-1.866-0.272-0.427-0.664-0.641-1.174-0.641-0.998 0-1.526 0.749-1.583 2.246l-0.006 0.607c0 0.809 0.134 1.431 0.403 1.866s0.667 0.652 1.197 0.652c0.503 0 0.891-0.214 1.163-0.641s0.41-1.042 0.414-1.844v-0.38zM57.63 24.242h-1.98l-2.927-5.139v5.139h-1.991v-8.259h1.991l2.921 5.139v-5.139h1.985v8.259zM64.164 20.742h-3.131v1.968h3.698v1.532h-5.689v-8.259h5.701v1.537h-3.71v1.741h3.131v1.481zM69.956 22.047c0-0.291-0.104-0.518-0.312-0.681-0.204-0.163-0.565-0.331-1.083-0.505s-0.942-0.342-1.271-0.505c-1.070-0.526-1.605-1.248-1.605-2.167 0-0.458 0.132-0.86 0.397-1.208 0.269-0.352 0.647-0.624 1.135-0.817 0.488-0.197 1.036-0.295 1.645-0.295 0.593 0 1.125 0.106 1.594 0.318 0.473 0.212 0.84 0.514 1.101 0.908 0.261 0.39 0.391 0.836 0.391 1.339h-1.985c0-0.337-0.104-0.597-0.312-0.783-0.204-0.185-0.482-0.278-0.834-0.278-0.355 0-0.637 0.079-0.845 0.238-0.204 0.155-0.306 0.354-0.306 0.596 0 0.212 0.113 0.405 0.34 0.579 0.227 0.17 0.626 0.348 1.197 0.533 0.571 0.182 1.040 0.378 1.407 0.59 0.893 0.514 1.339 1.223 1.339 2.127 0 0.722-0.272 1.29-0.817 1.702s-1.292 0.618-2.241 0.618c-0.669 0-1.276-0.119-1.821-0.357-0.541-0.242-0.949-0.571-1.225-0.987-0.272-0.42-0.409-0.902-0.409-1.447h1.997c0 0.442 0.113 0.77 0.34 0.981 0.23 0.208 0.603 0.312 1.117 0.312 0.329 0 0.588-0.070 0.777-0.21 0.193-0.144 0.289-0.344 0.289-0.601zM75.242 24.242h-1.985v-8.259h1.985v8.259zM81.572 22.7h-2.728l-0.477 1.543h-2.127l3.029-8.259h1.872l3.052 8.259h-2.138l-0.482-1.543zM79.321 21.162h1.775l-0.89-2.865-0.885 2.865z">
            </path>
        </symbol>
        <symbol id="google" viewBox="0 0 32 32">
            <path
                d="M25.167 14.137h-8.97c0 0.933 0 2.798-0.006 3.731h5.198c-0.199 0.933-0.905 2.239-1.903 2.896-0.001-0.001-0.002 0.006-0.004 0.005-1.327 0.876-3.077 1.075-4.377 0.813-2.037-0.405-3.65-1.882-4.305-3.759 0.004-0.003 0.007-0.029 0.010-0.031-0.41-1.164-0.41-2.723 0-3.656h-0.001c0.528-1.714 2.189-3.279 4.229-3.707 1.641-0.348 3.493 0.029 4.855 1.303 0.181-0.177 2.506-2.448 2.681-2.632-4.653-4.213-12.102-2.731-14.89 2.71h-0.001c0 0 0.001 0-0.005 0.010-1.379 2.673-1.322 5.822 0.010 8.366-0.004 0.003-0.007 0.005-0.010 0.007 1.206 2.341 3.402 4.137 6.048 4.821 2.81 0.737 6.387 0.233 8.783-1.934 0.001 0.001 0.002 0.002 0.003 0.003 2.030-1.828 3.294-4.943 2.655-8.947z">
            </path>
        </symbol>
        <symbol id="header__burger" viewBox="0 0 36 32">
            <path
                d="M6.554 24h24.013v-2.667h-24.013v2.667zM6.554 17.333h24.013v-2.667h-24.013v2.667zM6.554 8v2.667h24.013v-2.667h-24.013z">
            </path>
        </symbol>
        <symbol id="header__logo" viewBox="0 0 86 32">
            <path fill="#fff" style="fill: var(--color2, #fff)"
                d="M17.059 7.102v-3.551c0-0.392-0.318-0.71-0.71-0.71h-0.71v-2.13c0-0.392-0.318-0.71-0.71-0.71-1.006 0-2.546-0.077-4.354 1.006-1.124-0.334-1.919-0.296-2.75-0.296-0.392 0-0.71 0.318-0.71 0.71v1.42h-0.71c-0.392 0-0.71 0.318-0.71 0.71v3.551c0 2.892 2.173 5.286 4.973 5.637v9.276c0 0.392 0.318 0.71 0.71 0.71s0.71-0.318 0.71-0.71v-2.485h1.066c2.155 0 3.908-1.752 3.908-3.906v-1.065c0-0.392-0.318-0.71-0.71-0.71h-1.776c-0.944 0-1.811 0.336-2.487 0.895v-2.005c2.796-0.346 4.973-2.728 4.973-5.636zM15.638 7.102c0 1.264-0.559 2.405-1.443 3.188 0.014-0.114 0.022-0.23 0.022-0.347 0-1.798-0.673-3.442-1.779-4.695 0.938-0.64 2.050-0.986 3.2-0.986v2.84zM14.217 1.421v1.563c-0.131 0.027-0.262 0.057-0.391 0.091-0.461-0.516-0.987-0.955-1.56-1.31 0.62-0.227 1.279-0.345 1.951-0.345zM8.533 2.132c1.411 0 2.782 0.515 3.848 1.499-0.352 0.181-0.689 0.393-1.008 0.633-0.826-0.621-1.791-1.066-2.84-1.279v-0.853zM7.112 7.102v-2.84c3.134 0 5.684 2.548 5.684 5.681 0 0.794-0.656 1.44-1.458 1.42-2.496-0.062-4.226-2.044-4.226-4.26zM14.572 15.268h1.066v0.355c0 1.37-1.116 2.485-2.487 2.485h-1.066v-0.355c0-1.37 1.116-2.485 2.487-2.485z">
            </path>
            <path fill="#fff" style="fill: var(--color2, #fff)"
                d="M25.455 10.565h-2.995v1.883h3.538v1.465h-5.442v-7.9h5.453v1.47h-3.549v1.666h2.995v1.416zM29.866 8.639l1.291-2.626h2.176l-2.208 3.918 2.268 3.983h-2.197l-1.329-2.675-1.329 2.675h-2.192l2.263-3.983-2.203-3.918h2.17l1.291 2.626zM36.068 11.233v2.68h-1.904v-7.9h3.152c0.604 0 1.138 0.112 1.601 0.336 0.467 0.221 0.827 0.537 1.080 0.95 0.257 0.409 0.385 0.874 0.385 1.394 0 0.77-0.277 1.387-0.83 1.85-0.55 0.459-1.306 0.689-2.268 0.689h-1.215zM36.068 9.762h1.248c0.369 0 0.649-0.092 0.841-0.277 0.195-0.184 0.293-0.445 0.293-0.781 0-0.369-0.099-0.664-0.298-0.884s-0.47-0.333-0.814-0.336h-1.27v2.279zM43.452 12.448h3.315v1.465h-5.22v-7.9h1.904v6.435zM54.060 10.126c0 0.771-0.143 1.452-0.429 2.046s-0.692 1.051-1.221 1.373c-0.525 0.318-1.123 0.477-1.796 0.477s-1.269-0.154-1.79-0.461c-0.521-0.311-0.928-0.754-1.221-1.329-0.289-0.575-0.441-1.235-0.456-1.98v-0.445c0-0.774 0.141-1.456 0.423-2.046 0.286-0.593 0.693-1.051 1.221-1.373 0.532-0.322 1.136-0.483 1.812-0.483 0.669 0 1.266 0.159 1.791 0.478s0.931 0.772 1.221 1.362c0.293 0.586 0.441 1.259 0.445 2.018v0.364zM52.122 9.795c0-0.785-0.132-1.38-0.396-1.785-0.261-0.409-0.635-0.613-1.123-0.613-0.955 0-1.459 0.716-1.514 2.149l-0.006 0.581c0 0.774 0.128 1.369 0.385 1.785s0.638 0.624 1.145 0.624c0.481 0 0.852-0.204 1.113-0.613s0.392-0.997 0.396-1.763v-0.364zM58.123 11.124h-1.031v2.789h-1.905v-7.9h3.109c0.937 0 1.67 0.208 2.198 0.624s0.792 1.004 0.792 1.763c0 0.55-0.112 1.006-0.337 1.367-0.22 0.362-0.568 0.655-1.042 0.879l1.65 3.185v0.081h-2.040l-1.395-2.789zM57.092 9.654h1.204c0.362 0 0.633-0.094 0.814-0.282 0.185-0.192 0.277-0.458 0.277-0.798s-0.092-0.606-0.277-0.798c-0.185-0.195-0.456-0.293-0.814-0.293h-1.204v2.17zM67.482 10.565h-2.995v1.883h3.538v1.465h-5.442v-7.9h5.453v1.47h-3.548v1.666h2.995v1.416zM22.585 22.725h-1.899v-7.9h1.899v7.9zM30.653 22.725h-1.894l-2.8-4.916v4.916h-1.904v-7.9h1.904l2.794 4.916v-4.916h1.899v7.9zM32.004 22.725v-7.9h2.545c0.698 0 1.326 0.159 1.883 0.477 0.557 0.315 0.991 0.761 1.302 1.34 0.315 0.575 0.474 1.221 0.477 1.937v0.363c0 0.723-0.154 1.373-0.461 1.948-0.304 0.572-0.734 1.020-1.291 1.346-0.553 0.322-1.172 0.485-1.856 0.488h-2.599zM33.908 16.295v4.965h0.662c0.546 0 0.966-0.193 1.259-0.581 0.293-0.391 0.44-0.969 0.44-1.736v-0.342c0-0.763-0.147-1.338-0.44-1.725s-0.72-0.581-1.28-0.581h-0.64zM46.024 18.937c0 0.77-0.143 1.452-0.429 2.046s-0.693 1.051-1.221 1.373c-0.525 0.318-1.123 0.477-1.796 0.477s-1.27-0.154-1.791-0.461c-0.521-0.311-0.928-0.754-1.221-1.329-0.289-0.575-0.441-1.235-0.456-1.98v-0.445c0-0.774 0.141-1.456 0.423-2.046 0.286-0.593 0.693-1.051 1.221-1.373 0.532-0.322 1.136-0.483 1.812-0.483 0.669 0 1.266 0.159 1.791 0.477s0.931 0.772 1.221 1.362c0.293 0.586 0.441 1.259 0.445 2.018v0.363zM44.087 18.606c0-0.785-0.132-1.38-0.396-1.785-0.26-0.409-0.635-0.613-1.123-0.613-0.955 0-1.46 0.716-1.514 2.149l-0.005 0.581c0 0.774 0.128 1.369 0.385 1.785s0.638 0.624 1.145 0.624c0.481 0 0.852-0.204 1.112-0.613s0.392-0.997 0.396-1.763v-0.363zM53.75 22.725h-1.894l-2.8-4.916v4.916h-1.905v-7.9h1.905l2.794 4.916v-4.916h1.899v7.9zM60 19.377h-2.995v1.883h3.538v1.465h-5.442v-7.9h5.453v1.47h-3.548v1.666h2.995v1.416zM65.54 20.625c0-0.279-0.099-0.496-0.298-0.651-0.195-0.155-0.541-0.316-1.037-0.483s-0.901-0.327-1.215-0.483c-1.024-0.503-1.536-1.194-1.536-2.073 0-0.438 0.127-0.823 0.38-1.156 0.256-0.336 0.618-0.597 1.085-0.781 0.467-0.188 0.991-0.282 1.573-0.282 0.568 0 1.076 0.101 1.525 0.304 0.452 0.203 0.803 0.492 1.053 0.868 0.249 0.373 0.374 0.799 0.374 1.28h-1.899c0-0.322-0.099-0.572-0.298-0.749-0.195-0.177-0.461-0.266-0.798-0.266-0.34 0-0.609 0.076-0.808 0.228-0.196 0.148-0.293 0.338-0.293 0.57 0 0.203 0.109 0.387 0.326 0.553 0.217 0.163 0.599 0.333 1.145 0.51 0.546 0.174 0.995 0.362 1.346 0.564 0.854 0.492 1.28 1.17 1.28 2.035 0 0.691-0.261 1.233-0.781 1.628s-1.235 0.591-2.143 0.591c-0.64 0-1.221-0.114-1.742-0.342-0.517-0.232-0.908-0.546-1.172-0.944-0.26-0.402-0.391-0.863-0.391-1.384h1.91c0 0.423 0.109 0.736 0.326 0.939 0.221 0.199 0.577 0.298 1.069 0.298 0.315 0 0.563-0.067 0.743-0.201 0.185-0.137 0.276-0.329 0.276-0.575zM70.597 22.725h-1.899v-7.9h1.899v7.9zM76.652 21.249h-2.61l-0.455 1.476h-2.035l2.898-7.9h1.791l2.919 7.9h-2.046l-0.461-1.476zM74.497 19.778h1.698l-0.852-2.74-0.846 2.74z">
            </path>
            <path fill="#000" style="fill: var(--color3, #000)" opacity="0.7"
                d="M8.823 16.696h77.025v9.275h-77.025v-9.275z"></path>
        </symbol>
        <symbol id="linkedin" viewBox="0 0 32 32">
            <path
                d="M26.667 25.333h-4.103v-7.471c0-2.049-0.869-3.193-2.427-3.193-1.695 0-2.702 1.191-2.702 3.193v7.471h-4.103v-13.877h4.103v1.561c0 0 1.287-2.351 4.188-2.351s5.043 1.842 5.043 5.655c0 3.812 0 9.011 0 9.011zM7.334 8c-1.105 0-2-0.896-2-2s0.895-2 2-2c1.104 0 2 0.896 2 2s-0.895 2-2 2zM5.333 25.333h4v-13.333h-4v13.333z">
            </path>
        </symbol>
        <symbol id="magnifying__glass" viewBox="0 0 33 32">
            <path
                d="M20.381 18h-0.79l-0.28-0.27c0.98-1.14 1.57-2.62 1.57-4.23 0-3.59-2.91-6.5-6.5-6.5s-6.5 2.91-6.5 6.5c0 3.59 2.91 6.5 6.5 6.5 1.61 0 3.090-0.59 4.23-1.57l0.27 0.28v0.79l5 4.99 1.49-1.49-4.99-5zM14.38 18c-2.49 0-4.5-2.010-4.5-4.5s2.010-4.5 4.5-4.5c2.49 0 4.5 2.010 4.5 4.5s-2.010 4.5-4.5 4.5z">
            </path>
        </symbol>
        <symbol id="section-1__active__stripe" viewBox="0 0 4 32">
            <path fill="#dd2242" style="fill: var(--color1, #dd2242)" d="M1.196 29.63h1.186v-29.63h-1.186v29.63z">
            </path>
        </symbol>
        <symbol id="section-1__inactive__stripe" viewBox="0 0 0 32">
            <path fill="#fff" style="fill: var(--color2, #fff)" d="M0.004 32h0.216v-32h-0.216v32z"></path>
        </symbol>
        <symbol id="section-8_stripe" viewBox="0 0 0 32">
            <path d="M0.013 0.010h0.115v31.969h-0.115v-31.969z"></path>
        </symbol>
    </defs>
</svg>